<svg width="80" height="85" viewBox="0 0 80 85" fill="none" xmlns="http://www.w3.org/2000/svg">
<g filter="url(#filter0_d_191_24036)">
<path d="M11.668 36.666V46.666C11.668 59.236 11.668 65.5227 15.5746 69.426C19.4813 73.3293 25.7646 73.3327 38.3346 73.3327H41.668C54.238 73.3327 60.5246 73.3327 64.428 69.426C68.3313 65.5193 68.3346 59.236 68.3346 46.666V36.666" stroke="#C62828" stroke-width="6"/>
<path d="M31.6686 6.66602H48.3353L50.5086 28.3894C50.6518 29.8552 50.4867 31.3349 50.0238 32.7331C49.561 34.1313 48.8106 35.4173 47.8211 36.5082C46.8315 37.5991 45.6247 38.4709 44.278 39.0675C42.9314 39.6641 41.4748 39.9723 40.002 39.9723C38.5291 39.9723 37.0726 39.6641 35.7259 39.0675C34.3793 38.4709 33.1724 37.5991 32.1829 36.5082C31.1933 35.4173 30.443 34.1313 29.9801 32.7331C29.5173 31.3349 29.3521 29.8552 29.4953 28.3894L31.6686 6.66602Z" stroke="#C62828" stroke-width="6"/>
<path d="M11.1014 17.836C11.6947 14.8693 11.9914 13.386 12.5947 12.1827C13.2234 10.9295 14.1085 9.82247 15.1927 8.93352C16.2769 8.04456 17.5359 7.39353 18.888 7.02268C20.188 6.66602 21.7014 6.66602 24.728 6.66602H31.668L29.2514 30.816C29.1238 32.1981 28.7156 33.5396 28.0516 34.7585C27.3876 35.9773 26.4818 37.0478 25.3897 37.9044C24.2976 38.761 23.0422 39.3857 21.7002 39.7403C20.3583 40.0949 18.9582 40.1719 17.5855 39.9665C16.2128 39.7612 14.8964 39.2778 13.717 38.5461C12.5376 37.8143 11.5199 36.8496 10.7263 35.7109C9.93273 34.5722 9.37988 33.2835 9.10162 31.9237C8.82335 30.5639 8.82554 29.1616 9.10805 27.8027L11.1014 17.836ZM68.9014 17.836C68.308 14.8693 68.0114 13.386 67.408 12.1827C66.7794 10.9295 65.8942 9.82247 64.81 8.93352C63.7258 8.04456 62.4668 7.39353 61.1147 7.02268C59.8147 6.66602 58.3014 6.66602 55.2747 6.66602H48.3347L50.7514 30.816C50.8789 32.1981 51.2872 33.5396 51.9512 34.7585C52.6152 35.9773 53.521 37.0478 54.6131 37.9044C55.7052 38.761 56.9606 39.3857 58.3025 39.7403C59.6444 40.0949 61.0446 40.1719 62.4173 39.9665C63.79 39.7612 65.1063 39.2778 66.2858 38.5461C67.4652 37.8143 68.4828 36.8496 69.2764 35.7109C70.07 34.5722 70.6229 33.2835 70.9011 31.9237C71.1794 30.5639 71.1772 29.1616 70.8947 27.8027L68.9014 17.836Z" stroke="#C62828" stroke-width="6"/>
<path d="M31.668 71.6654V61.6654C31.668 58.5487 31.668 56.992 32.338 55.832C32.7768 55.072 33.4079 54.4409 34.168 54.002C35.328 53.332 36.8846 53.332 40.0013 53.332C43.118 53.332 44.6746 53.332 45.8346 54.002C46.5947 54.4409 47.2258 55.072 47.6646 55.832C48.3346 56.992 48.3346 58.5487 48.3346 61.6654V71.6654" stroke="#C62828" stroke-width="6" stroke-linecap="round"/>
</g>
<defs>
<filter id="filter0_d_191_24036" x="-4" y="0" width="88" height="88" filterUnits="userSpaceOnUse" color-interpolation-filters="sRGB">
<feFlood flood-opacity="0" result="BackgroundImageFix"/>
<feColorMatrix in="SourceAlpha" type="matrix" values="0 0 0 0 0 0 0 0 0 0 0 0 0 0 0 0 0 0 127 0" result="hardAlpha"/>
<feOffset dy="4"/>
<feGaussianBlur stdDeviation="2"/>
<feComposite in2="hardAlpha" operator="out"/>
<feColorMatrix type="matrix" values="0 0 0 0 0 0 0 0 0 0 0 0 0 0 0 0 0 0 0.25 0"/>
<feBlend mode="normal" in2="BackgroundImageFix" result="effect1_dropShadow_191_24036"/>
<feBlend mode="normal" in="SourceGraphic" in2="effect1_dropShadow_191_24036" result="shape"/>
</filter>
</defs>
</svg>
